<svg xmlns="http://www.w3.org/2000/svg" width="16" height="16">
  <g fill="none" fill-rule="evenodd">
    <path fill="#FFF" stroke="#0AF" stroke-width="1.6" d="M13.76 14.193c1.103-.004 1.75-.867 1.357-1.888 0 0-.824-5.14-7.122-5.137-6.3.004-7.117 5.192-7.117 5.192-.346 1.035.274 1.87 1.37 1.868l11.513-.035z"/>
    <path fill="#FFF" stroke="#0AF" stroke-width="1.6" d="M8 8.01c1.933 0 3.5-1.568 3.5-3.5 0-1.934-1.567-3.5-3.5-3.5s-3.5 1.566-3.5 3.5c0 1.932 1.567 3.5 3.5 3.5z"/>
    <path fill="#0AF" d="M4.372 12.2c0-.444.355-.804.8-.804.442 0 .8.368.8.804v2.196h-1.6V12.2zm5.642-.007c0-.444.355-.804.8-.804.442 0 .8.364.8.8v2.196h-1.6V12.19z"/>
  </g>
</svg>
